<svg width="1024" height="1024" viewBox="0 0 1024 1024" fill="none" xmlns="http://www.w3.org/2000/svg">
  <defs>
    <linearGradient id="bg" x1="128" y1="96" x2="896" y2="928" gradientUnits="userSpaceOnUse">
      <stop stop-color="#202326"/>
      <stop offset="1" stop-color="#0D0F11"/>
    </linearGradient>
    <linearGradient id="frame" x1="160" y1="144" x2="864" y2="880" gradientUnits="userSpaceOnUse">
      <stop stop-color="#40464D"/>
      <stop offset="1" stop-color="#14181C"/>
    </linearGradient>
    <linearGradient id="accent" x1="272" y1="252" x2="752" y2="772" gradientUnits="userSpaceOnUse">
      <stop stop-color="#F5F7FA"/>
      <stop offset="1" stop-color="#AEB6BD"/>
    </linearGradient>
    <clipPath id="chassis">
      <path d="M216 88H808L936 216V808L808 936H216L88 808V216L216 88Z"/>
    </clipPath>
  </defs>

  <rect width="1024" height="1024" fill="#060708"/>

  <g clip-path="url(#chassis)">
    <rect x="88" y="88" width="848" height="848" fill="url(#bg)"/>
    <rect x="136" y="136" width="752" height="752" rx="18" fill="#0B0D0F" stroke="url(#frame)" stroke-width="10"/>
    <rect x="168" y="168" width="688" height="688" rx="10" fill="#111417" stroke="#2C3238" stroke-width="4"/>

    <path d="M168 312H856" stroke="#24292F" stroke-width="8"/>
    <path d="M168 712H856" stroke="#24292F" stroke-width="8"/>
    <path d="M312 168V856" stroke="#24292F" stroke-width="8"/>
    <path d="M712 168V856" stroke="#24292F" stroke-width="8"/>

    <rect x="238" y="238" width="548" height="548" rx="8" fill="#0A0C0E" stroke="#373E45" stroke-width="4"/>

    <path d="M314 704V320" stroke="#E7EDF2" stroke-width="62" stroke-linecap="square"/>
    <path d="M710 704V320" stroke="#E7EDF2" stroke-width="62" stroke-linecap="square"/>
    <path d="M346 336L512 566L678 336" stroke="#E7EDF2" stroke-width="58" stroke-linecap="square" stroke-linejoin="miter"/>
    <path d="M680 260H764" stroke="#E77F32" stroke-width="18" stroke-linecap="square"/>
    <path d="M724 260V344" stroke="#E77F32" stroke-width="18" stroke-linecap="square"/>
    <circle cx="768" cy="768" r="42" fill="#E77F32"/>
    <circle cx="768" cy="768" r="18" fill="#101214"/>
  </g>

  <path d="M216 88H808L936 216V808L808 936H216L88 808V216L216 88Z" stroke="#4A5158" stroke-width="16"/>
</svg>
